<?xml version="1.0" encoding="UTF-8"?><svg id="Vrstva_2" xmlns="http://www.w3.org/2000/svg" viewBox="0 0 183.47 139.16"><defs><style>.cls-1{fill:#efefef;}</style></defs><g id="Vrstva_2-2"><path class="cls-1" d="M155.39,10.45C134.68,1.74,118.61,0,118.61,0l-5.61,9.29s-9.87-1.55-20.27-1.74-22.12,1.74-22.12,1.74l-3.87-9.29C43.13,2.71,28.22,11.61,28.22,11.61-7.58,63.1,.87,116.19,.87,116.19c30.06,19.16,46.25,22.97,46.25,22.97l10.23-15.55c-10.52-3.25-15.39-7.48-15.39-7.48l3.68-4.06c46.84,24.19,92.71,.19,92.71,.19l3.68,4.26c-4.06,3.1-15.1,6.97-15.1,6.97l10.09,15.68c30.68-11.21,45.73-23.3,45.73-23.3,6-61.74-27.37-105.41-27.37-105.41ZM77.21,77.66c-.01,.16-.03,.31-.05,.46,.03-.11,.04-.07,.04,.13,.01,.26-.01,.52-.09,.78-.04,.33-.07,.73-.19,1.06-.01,.04-.02,.06-.02,.08-.05,.38-.1,.76-.18,1.14-.24,1.12-.52,2.15-1.03,3.19-.02,.04-.04,.07-.06,.11-.07,.18-.15,.35-.24,.52-.17,.48-.43,.93-.76,1.33-.35,.61-.86,1.33-1.02,1.54-1.23,1.63-2.37,2.88-4.02,4.09-.14,.11-.29,.2-.44,.28-.02,.02-.05,.03-.08,.04-1.23,.99-2.93,1.57-4.28,1.94-1.09,.3-2.21,.43-3.32,.4-.05,0-.1,0-.16,0-.03,0-.06,0-.09,0-.08,.01-.17,.02-.25,.02-.32,0-.63-.04-.93-.1-.22-.02-.45-.03-.67-.07-.09,0-.17,0-.26-.01-.63-.08-1.22-.17-1.82-.36-1.08-.34-2.09-.75-2.99-1.38-.27-.11-.53-.24-.78-.4-.72-.47-1.39-1.06-2.02-1.64-.41-.38-.81-.77-1.22-1.16-.39-.38-.75-.81-1.05-1.27-.09-.13-.14-.26-.2-.38-.21-.23-.39-.48-.54-.76-.48-.93-.96-1.78-1.34-2.78l-.03-.07c-.22-.2-.41-.82-.46-.95-.54-1.28-.9-2.66-.92-4.05-.11-.58-.19-1.17-.21-1.74,0-.04,0-.09,0-.13,0-.13-.02-.27-.01-.4,0-.24,.03-.46,.06-.68-.04-.42-.06-.85-.03-1.3,.01-.19,.04-.38,.06-.57,0-.34,0-.69,.03-1.03,.09-.91,.24-1.68,.59-2.42,.32-1.76,.87-3.45,2-4.99,.08-.11,.17-.22,.25-.32,.67-1.25,1.53-2.43,2.54-3.35,.21-.2,2.01-1.68,1.48-1.2,.41-.33,.82-.65,1.25-.95,.53-.39,1.12-.72,1.74-.94,1.51-.86,3.36-1.25,5.09-1.37,.6-.04,1.19-.02,1.77,.07,.79,.01,1.58,.15,2.31,.43,.11,.02,.23,.04,.34,.07,.78,.2,1.51,.56,2.24,.89,.21,.1,.41,.2,.61,.31,.32,.15,.63,.3,.94,.49,.48,.3,.96,.62,1.42,.96,.7,.43,1.35,.98,1.93,1.65,.37,.43,.73,.88,1.06,1.35,.3,.31,.57,.65,.82,.99,.17,.25,.32,.51,.46,.78,.14,.2,.28,.4,.4,.62,.24,.46,.41,.87,.54,1.28,.34,.71,.63,1.42,.83,2.08,.38,1.24,.7,2.66,.85,4.09,.09,.68,.16,1.34,.14,2v.09c.03,.39,0,.77-.02,1.15,0,.12,.01,.24,0,.37Zm60.04-9.24c.1,.22,.28,.73,.36,.87,.18,.59,.44,1.29,.58,1.84,.8,3.86,1.05,7.47-.27,11.58-1.73,5.36-5.43,9.29-9.6,11-2.49,1.02-5.39,1.32-7.4,.95-2.37-.49-3.64-.81-6.24-2.54-1.51-1.09-2.24-1.84-3.22-2.98-1.72-2.02-3.01-4.74-3.74-7.28-.25-.86-.39-1.79-.53-2.82-.08-.53-.12-.85-.13-1.46,0-.25-.03-.67-.02-.92-.04-1.23,.1-2.45,.26-3.66,.17-1.27,.55-2.53,1-3.82,.52-1.59,1.28-3.11,2.32-4.56,2.54-3.55,6.2-5.87,10.43-6.49,.44-.07,.9-.08,1.37-.11,.42-.03,.84-.03,1.22,0,.66,.04,1.3,.11,1.95,.24,.77,.13,1.54,.37,2.33,.67,3.24,1.24,5.82,3.53,7.89,6.56,.39,.57,.64,1.13,.88,1.76,.06,.11,.17,.31,.22,.43"/></g></svg>