<?xml version="1.0" encoding="UTF-8"?><svg id="Vrstva_2" xmlns="http://www.w3.org/2000/svg" viewBox="0 0 2426.5 1617.68"><defs><style>.cls-1{fill:#efefef;fill-rule:evenodd;}</style></defs><g id="Vrstva_1-2"><g><path class="cls-1" d="M823.81,4.53h26.58v.42c131.59,3.98,260.35,39.19,375.66,102.72,42.05-24.46,86.26-45.03,132.06-61.44l36.55,55.43,35.56-10.73,7.02-68.47c41.87-10.24,84.51-17.05,127.49-20.38l20.47,65.98,37.16-.39L1649.7,0c41.52,1.18,82.23,5.55,121.94,12.85l4.01,72.71,36.15,8.65,44.43-60.93c41.62,12.51,82.14,28.41,121.16,47.53l-15.68,65.87,32.16,18.57,57-43.5c35.5,22.3,69.2,47.33,100.81,74.86l-36.57,59.45,24.75,27.69,74.84-25.95c29.03,31.44,55.52,65.13,79.23,100.76l-44.6,42.89,17.02,33.01,69.36-5.6c19.91,37.75,36.75,77.04,50.36,117.49l-57.12,34.94,9.49,35.9,69.98,9.6c9.43,42.32,15.39,85.33,17.81,128.62l-68.36,21.52,.56,37.13,68.07,27.21c-2.28,45.04-8.38,89.81-18.24,133.82l-67.82,1.7-9.73,35.85,55.04,42.76c-13.56,40.09-30.28,79.03-50,116.47l-60.65-14.8-18.74,32.05,38.73,51.35c-21.57,32.6-45.48,63.58-71.54,92.71l-58.09-30.27-25.86,26.65,26.45,61.74c-32.45,29.67-67.28,56.63-104.13,80.61l-45.63-42.79-32.1,18.69,8.56,64.34c-39.84,20.62-81.35,37.84-124.09,51.48l-33.41-58.64-36.17,8.38-12.09,71.54c-40.64,8.32-81.87,13.45-123.32,15.36l-19.03-66.21-37.11-.38-28.38,66.07c-43.08-2.54-85.88-8.59-127.97-18.09l-1.75-75.96-35.82-9.78-47.87,61.4c-41.7-14.46-82.12-32.36-120.85-53.53-123.36,72.27-267.41,113.89-421.1,113.89C370.07,1617.68,0,1255.33,0,811.09S355.71,18.79,797.21,4.97v-.47h26.43c.06,.03,.12,.03,.17,.03h0Zm-60.17,1563.99c6.83-4.93,13.6-9.94,20.3-15.04-111.3-95.67-200.27-214.58-260.64-348.35-87.59,36.24-167.85,88.12-236.85,153.11,130.28,122.69,298.74,196.93,477.2,210.29Zm-510.65-243.79c73.41-69.18,158.81-124.4,252.03-162.95-41.75-105.87-64.9-218.15-68.43-331.9H48.17c4.76,190.37,81.66,363.76,204.83,494.85h0ZM48.77,776.72H436.33c2.36-115.99,25.12-230.65,67.24-338.74-87.96-36.56-168.97-88.01-239.47-152.07C137.92,414.77,57.48,586.87,48.77,776.72ZM298.32,253.08c65.88,59.51,141.42,107.36,223.38,141.5,58.16-130.29,143.43-246.68,250.13-341.4-175.87,11.31-342.74,81.76-473.51,199.9h0ZM869.88,52.8c107.42,95.26,193.15,212.47,251.39,343.7,83.74-34.25,160.9-82.78,228.03-143.42-132.28-119.5-301.45-190.17-479.43-200.28h0Zm513.65,233.12c-71.78,65.23-154.45,117.36-244.25,154.03,41.62,107.52,64.12,221.5,66.47,336.77h393.11c-8.7-189.85-89.14-361.95-215.34-490.8h0Zm215.92,543.95h-393.96c-3.51,113.05-26.39,224.66-67.65,329.96,95.05,38.61,182.12,94.51,256.78,164.88,123.16-131.11,200.07-304.48,204.83-494.85h0Zm-238.29,528.34c-70.25-66.14-152.15-118.7-241.54-155.03-60.36,134.57-149.65,254.18-261.5,350.31,6.85,5.21,13.76,10.34,20.74,15.38,180.29-12.32,350.74-86.77,482.29-210.67h0ZM483.09,776.72h314.17V501.18c-85.23-2.61-169.55-18.28-250.02-46.48-40.07,102.76-61.79,211.76-64.15,322.03Zm367.3,0h308.63c-2.36-109.66-23.84-218.06-63.47-320.33-79.01,27.14-161.65,42.24-245.15,44.78v275.54Zm308.33,53.15h-308.33v269.3c82.97,2.53,165.1,17.46,243.66,44.28,39.29-100.07,61.16-206.13,64.67-313.58Zm-361.48,0H483.37c3.52,108.06,25.62,214.72,65.33,315.28,80.02-27.89,163.84-43.39,248.54-45.98v-269.3Zm278.5,356.99c-72.72-24.54-148.64-38.29-225.35-40.79v351.78c95.39-87.35,172.05-193.15,225.35-310.99h0Zm-278.5-40.78c-78.4,2.57-155.98,16.87-230.15,42.42,54.32,119.48,132.67,226.5,230.15,314.39v-356.81h0Zm-231.82-734.82c74.67,25.92,152.82,40.42,231.82,42.99V93.12c-98.5,88.83-177.45,197.17-231.82,318.15h0Zm284.97,42.99c77.3-2.52,153.81-16.45,227.04-41.35-53.36-119.34-130.63-226.48-227.04-314.78V454.27h0Zm772.21-249.65c325.44,0,590.86,265.44,590.86,590.88s-265.43,590.88-590.86,590.88c-64.98,.04-129.52-10.71-190.98-31.81-40.35,43.21-85.21,81.97-133.82,115.61l1.67,14.97,60.97,24.69,46.72-52.44c25.1,8.44,50.67,15.42,76.57,20.89l1.92,75,74.95,10.87,31.57-71.81c25.1,1.28,50.25,1.15,75.34-.39l20.87,70.67,75.21-8.9,11.8-76.68c25.73-5.67,51.11-12.82,76.02-21.43l33.03,54.21,70.4-27.94-7.31-67.79c23.18-12.2,45.65-25.69,67.3-40.43l44.07,44.1,61.84-43.75-23.66-65.78c17.67-16.4,34.5-33.69,50.41-51.8l52.86,32.02,49.62-57.22-39.18-59c12.03-18.79,23.13-38.15,33.28-58.01l64.8,13.98,28.25-70.27-52.62-40.18c8.24-24.79,15.06-50.04,20.41-75.61l67.48-2.39,10.1-75.08-63.94-27.33c1.47-27.44,1.28-54.94-.56-82.36l65.68-22.97-12.57-74.69-68.07-7.06c-5.9-26.48-13.37-52.59-22.37-78.18l58.36-35.01-27.43-70.59-74.2,7.5c-11.96-22.27-25.14-43.86-39.47-64.68l46-50.54-46.59-59.71-66.2,27.41c-18.36-19.52-37.82-37.97-58.29-55.26l33.54-58.07-58.23-48.4-62.67,43.53c-20.58-12.53-41.8-23.98-63.58-34.31l15.17-65.54-69.87-29.27-44.71,56.79c-24.68-7.3-49.74-13.21-75.08-17.69l-4.12-68.52-75.29-8.27-26.5,66.39c-25.35-.53-50.7,.33-75.95,2.58l-22.65-64.87-74.68,12.54-7.29,69.76c-26.33,6.52-52.24,14.59-77.61,24.18l-40.63-55.64-67.82,33.72,1.49,7.69c47.8,30.94,92.28,66.73,132.73,106.81,68.04-26.5,140.44-40.06,213.46-40h0Zm-155.18,1108.94c50.33,15.15,102.62,22.82,155.18,22.77,297.9,0,540.85-242.95,540.85-540.85S1920.5,254.62,1622.6,254.62c-61.58,0-120.8,10.4-176.03,29.51,125.13,141.51,201.03,325.84,201.03,526.97-.01,189.73-67.52,364.46-180.19,502.45h0Z"/><path class="cls-1" d="M225.13,367.17H769.11v225.09H493.99v131.31h250.11v212.59h-250.11v303.25H225.13V367.17Zm1978.51,872.23h-297.01l-33.28-112.55h-233.56l-29.71,112.55h-296.98l260.81-881.61h368.9l260.84,881.61Zm-386.71-303.25l-67.03-226.52-59.78,226.52h126.81Zm-860.25-256.35h262.61v565.86h-262.61V679.81Zm131.31-365.77c89.53,0,162.58,73.02,162.58,162.56s-73.05,162.58-162.58,162.58-162.58-73.03-162.58-162.58,73.03-162.56,162.58-162.56h0Z"/></g></g></svg>